<svg width="40" height="29" viewBox="0 0 40 29" fill="none" xmlns="http://www.w3.org/2000/svg">
<path d="M7.68979 0.133511C6.83679 0.298887 6.05343 0.577417 5.20043 0.995213C1.15304 3.02326 -0.901114 7.75827 0.378383 12.1451C1.29231 15.3221 3.71204 17.7157 6.93254 18.647C7.29221 18.7523 7.45361 19.1705 7.25788 19.4901L6.95865 19.9788C6.34937 20.9971 4.63467 23.5909 3.4161 25.3492C2.71107 26.3762 2.67625 26.9594 3.28554 27.6122C3.59888 27.9517 3.6424 27.9691 4.20817 28.0039C5.80101 28.0909 9.07374 27.0029 11.2062 25.6799C12.6859 24.7573 14.3919 23.2167 15.4103 21.8675C17.2381 19.4565 18.4393 16.2969 18.8832 12.7022C18.9441 12.1886 18.9964 10.944 18.9877 9.87335C18.9877 8.07161 18.9702 7.90623 18.7526 7.08805C18.4741 6.05227 17.7343 4.52036 17.1337 3.72829C15.7672 1.93525 13.6782 0.620937 11.4848 0.168327C10.4577 -0.0405712 8.63853 -0.0579796 7.68979 0.133511Z" fill="#BBD805"/>
<path d="M29.0068 0.0548916C26.7438 0.368238 24.3067 1.83052 22.8618 3.728C22.2612 4.52878 21.5214 6.05199 21.2428 7.08777C21.0339 7.87113 21.0078 8.10614 21.0078 9.48138C21.0078 10.8566 21.0339 11.0916 21.2428 11.875C21.9043 14.3557 23.4537 16.3924 25.6906 17.7328C26.3608 18.1332 27.3705 18.5423 28.1016 18.7077C28.3446 18.7641 28.4645 19.0387 28.3408 19.2553L28.3105 19.3083C27.6838 20.4137 25.708 23.434 24.3328 25.3924C23.9585 25.9233 23.8802 26.1061 23.8453 26.4891C23.8018 27.0723 23.9933 27.5162 24.4285 27.8121C24.8289 28.082 25.5339 28.0907 26.7003 27.8469C29.0155 27.3595 31.2003 26.3934 33.1761 25.0007C34.1248 24.3218 35.9266 22.5114 36.649 21.493C38.2418 19.2473 39.4082 16.0704 39.7912 12.9195C40.296 8.82858 39.913 6.47849 38.3811 4.17191C36.9798 2.07423 34.7602 0.603247 32.2448 0.124523C31.6007 0.00266647 29.6858 -0.0408535 29.0068 0.0548916Z" fill="#BBD805"/>
</svg>
