<svg width="1434" height="1105" viewBox="0 0 1434 1105" fill="none" xmlns="http://www.w3.org/2000/svg">
<path d="M17.4167 0V1105" stroke="white" stroke-opacity="0.2" stroke-width="1.04834"/>
<path d="M69.834 0V1105" stroke="white" stroke-opacity="0.2" stroke-width="1.04834"/>
<path d="M122.25 0V1105" stroke="white" stroke-opacity="0.2" stroke-width="1.04834"/>
<path d="M174.667 0V1105" stroke="white" stroke-opacity="0.2" stroke-width="1.04834"/>
<path d="M227.084 0V1105" stroke="white" stroke-opacity="0.2" stroke-width="1.04834"/>
<path d="M279.501 0V1105" stroke="white" stroke-opacity="0.2" stroke-width="1.04834"/>
<path d="M331.918 0V1105" stroke="white" stroke-opacity="0.2" stroke-width="1.04834"/>
<path d="M384.334 0V1105" stroke="white" stroke-opacity="0.2" stroke-width="1.04834"/>
<path d="M436.751 0V1105" stroke="white" stroke-opacity="0.2" stroke-width="1.04834"/>
<path d="M489.168 0V1105" stroke="white" stroke-opacity="0.2" stroke-width="1.04834"/>
<path d="M541.585 0V1105" stroke="white" stroke-opacity="0.2" stroke-width="1.04834"/>
<path d="M594.002 0V1105" stroke="white" stroke-opacity="0.2" stroke-width="1.04834"/>
<path d="M646.419 0V1105" stroke="white" stroke-opacity="0.2" stroke-width="1.04834"/>
<path d="M698.836 0V1105" stroke="white" stroke-opacity="0.2" stroke-width="1.04834"/>
<path d="M751.252 0V1105" stroke="white" stroke-opacity="0.2" stroke-width="1.04834"/>
<path d="M803.669 0V1105" stroke="white" stroke-opacity="0.2" stroke-width="1.04834"/>
<path d="M856.086 0V1105" stroke="white" stroke-opacity="0.2" stroke-width="1.04834"/>
<path d="M908.503 0V1105" stroke="white" stroke-opacity="0.2" stroke-width="1.04834"/>
<path d="M960.92 0V1105" stroke="white" stroke-opacity="0.2" stroke-width="1.04834"/>
<path d="M1013.34 0V1105" stroke="white" stroke-opacity="0.2" stroke-width="1.04834"/>
<path d="M1065.75 0V1105" stroke="white" stroke-opacity="0.2" stroke-width="1.04834"/>
<path d="M1118.17 0V1105" stroke="white" stroke-opacity="0.2" stroke-width="1.04834"/>
<path d="M1170.59 0V1105" stroke="white" stroke-opacity="0.2" stroke-width="1.04834"/>
<path d="M1223 0V1105" stroke="white" stroke-opacity="0.2" stroke-width="1.04834"/>
<path d="M1275.42 0V1105" stroke="white" stroke-opacity="0.2" stroke-width="1.04834"/>
<path d="M1327.84 0V1105" stroke="white" stroke-opacity="0.2" stroke-width="1.04834"/>
<path d="M1380.25 0V1105" stroke="white" stroke-opacity="0.2" stroke-width="1.04834"/>
<path d="M1432.67 0V1105" stroke="white" stroke-opacity="0.2" stroke-width="1.04834"/>
</svg>
