<svg width="33" height="33" viewBox="0 0 33 33" fill="none" xmlns="http://www.w3.org/2000/svg">
<path fill-rule="evenodd" clip-rule="evenodd" d="M22.3929 0C23.0438 0 23.5714 0.527664 23.5714 1.17857V10.6071C23.5714 11.2581 23.0438 11.7857 22.3929 11.7857C21.742 11.7857 21.2143 11.2581 21.2143 10.6071V7.07143H1.17857C0.527664 7.07143 0 6.54376 0 5.89286C0 5.24195 0.527664 4.71429 1.17857 4.71429H21.2143V1.17857C21.2143 0.527664 21.742 0 22.3929 0ZM25.9286 5.89286C25.9286 5.24195 26.4562 4.71429 27.1071 4.71429H31.8214C32.4723 4.71429 33 5.24195 33 5.89286C33 6.54376 32.4723 7.07143 31.8214 7.07143H27.1071C26.4562 7.07143 25.9286 6.54376 25.9286 5.89286ZM10.6071 10.6071C11.2581 10.6071 11.7857 11.1348 11.7857 11.7857V15.3214H31.8214C32.4723 15.3214 33 15.8491 33 16.5C33 17.1509 32.4723 17.6786 31.8214 17.6786H11.7857V21.2143C11.7857 21.8652 11.2581 22.3929 10.6071 22.3929C9.95624 22.3929 9.42857 21.8652 9.42857 21.2143V11.7857C9.42857 11.1348 9.95624 10.6071 10.6071 10.6071ZM0 16.5C0 15.8491 0.527664 15.3214 1.17857 15.3214H5.89286C6.54376 15.3214 7.07143 15.8491 7.07143 16.5C7.07143 17.1509 6.54376 17.6786 5.89286 17.6786H1.17857C0.527664 17.6786 0 17.1509 0 16.5ZM22.3929 21.2143C23.0438 21.2143 23.5714 21.742 23.5714 22.3929V31.8214C23.5714 32.4723 23.0438 33 22.3929 33C21.742 33 21.2143 32.4723 21.2143 31.8214V28.2857H1.17857C0.527664 28.2857 0 27.7581 0 27.1071C0 26.4562 0.527664 25.9286 1.17857 25.9286H21.2143V22.3929C21.2143 21.742 21.742 21.2143 22.3929 21.2143ZM25.9286 27.1071C25.9286 26.4562 26.4562 25.9286 27.1071 25.9286H31.8214C32.4723 25.9286 33 26.4562 33 27.1071C33 27.7581 32.4723 28.2857 31.8214 28.2857H27.1071C26.4562 28.2857 25.9286 27.7581 25.9286 27.1071Z" fill="white"/>
</svg>
