<svg width="33" height="33" viewBox="0 0 33 33" fill="none" xmlns="http://www.w3.org/2000/svg">
<path d="M10.3125 4.125V0H0V10.3125H4.125V22.6875H0V33H10.3125V28.875H22.6875V33H33V22.6875H28.875V10.3125H33V0H22.6875V4.125H10.3125ZM22.6875 6.1875V10.3125H26.8125V22.6875H22.6875V26.8125H10.3125V22.6875H6.1875V10.3125H10.3125V6.1875H22.6875ZM24.75 2.0625H30.9375V8.25H24.75V2.0625ZM30.9375 24.75V30.9375H24.75V24.75H30.9375ZM8.25 30.9375H2.0625V24.75H8.25V30.9375ZM2.0625 8.25V2.0625H8.25V8.25H2.0625Z" fill="white"/>
</svg>
