<svg width="41" height="33" viewBox="0 0 41 33" fill="none" xmlns="http://www.w3.org/2000/svg">
<path d="M21.1029 0.149321C20.7261 -0.0497738 20.2739 -0.0497738 19.8971 0.149321L0.678309 10.3032C0.260796 10.5238 0 10.9543 0 11.4231C0 11.8918 0.260796 12.3224 0.678309 12.543L8.16797 16.5L0.678309 20.457C0.260796 20.6776 0 21.1082 0 21.5769C0 22.0457 0.260796 22.4762 0.678309 22.6968L19.8971 32.8507C20.2739 33.0498 20.7261 33.0498 21.1029 32.8507L40.3217 22.6968C40.7392 22.4762 41 22.0457 41 21.5769C41 21.1082 40.7392 20.6776 40.3217 20.457L32.832 16.5L40.3217 12.543C40.7392 12.3224 41 11.8918 41 11.4231C41 10.9543 40.7392 10.5238 40.3217 10.3032L21.1029 0.149321ZM30.1094 17.9385L36.9961 21.5769L20.5 30.2923L4.00391 21.5769L10.8906 17.9385L19.8971 22.6968C20.2739 22.8959 20.7261 22.8959 21.1029 22.6968L30.1094 17.9385ZM20.5 20.1385L4.00391 11.4231L20.5 2.70769L36.9961 11.4231L20.5 20.1385Z" fill="white"/>
</svg>
