<svg width="16" height="15" viewBox="0 0 16 15" fill="none" xmlns="http://www.w3.org/2000/svg">
<path d="M5.63874 2.26722C6.38196 -0.0201898 9.61804 -0.0201902 10.3613 2.26722C10.6936 3.29018 11.6469 3.98278 12.7225 3.98278C15.1277 3.98278 16.1277 7.06047 14.1819 8.47417C13.3117 9.10639 12.9476 10.227 13.2799 11.25C14.0232 13.5374 11.4051 15.4395 9.45934 14.0258C8.58916 13.3936 7.41084 13.3936 6.54066 14.0258C4.59487 15.4395 1.97683 13.5374 2.72005 11.25C3.05243 10.227 2.68832 9.10639 1.81813 8.47417C-0.127655 7.06047 0.872347 3.98278 3.27747 3.98278C4.35308 3.98278 5.30636 3.29018 5.63874 2.26722Z" fill="#ECBD00"/>
</svg>
