<svg width="32" height="33" viewBox="0 0 32 33" fill="none" xmlns="http://www.w3.org/2000/svg">
<path d="M13.4844 5.52344C12.3977 3.88489 11.2854 2.50178 10.282 1.54491C9.7291 1.01767 9.15733 0.569431 8.59813 0.296676C8.0835 0.0456623 7.27153 -0.199879 6.50678 0.251127C5.63601 0.764648 5.49371 1.77616 5.48728 2.41852C5.47991 3.15506 5.63902 4.02763 5.89659 4.94732C6.36255 6.61117 7.21444 8.65031 8.35238 10.7655L0.582905 18.7017C-0.0741333 19.3728 -0.0546535 20.2913 0.0657449 20.9263C0.195638 21.6114 0.509283 22.3617 0.918108 23.1134C1.74391 24.6317 3.09926 26.4106 4.77511 28.1224C6.45097 29.8342 8.19249 31.2187 9.67893 32.0622C10.4148 32.4798 11.1494 32.8002 11.8201 32.9328C12.4418 33.0558 13.3409 33.0757 13.998 32.4046L27.3128 18.8041C27.593 19.4276 27.5323 20.0435 27.4302 21.0786C27.3604 21.7864 27.2713 22.6904 27.2586 23.9269C27.2569 23.9745 27.2565 24.0222 27.2575 24.0698L27.2571 24.2254L27.2655 24.2237C27.3112 24.7733 27.5399 25.31 27.9516 25.7305C28.8777 26.6765 30.3792 26.6765 31.3053 25.7305C31.7169 25.3101 31.9456 24.7737 31.9913 24.2243L32 24.2254C32 24.1793 31.9997 24.133 31.999 24.0866C32.0016 23.9924 31.9989 23.898 31.9908 23.804C31.8593 20.7762 30.329 17.1718 27.5814 15.3409C27.4406 14.9953 27.2697 14.6428 27.0778 14.29C26.252 12.7717 24.8967 10.9928 23.2208 9.28097C21.545 7.56915 19.8034 6.18473 18.317 5.34121C17.5811 4.92361 16.8465 4.60324 16.1758 4.47056C15.5541 4.34758 14.655 4.32768 13.998 4.99881L13.4844 5.52344ZM8.66366 3.31556C9.56902 4.17893 10.6668 5.5492 11.7745 7.27002L10.1035 8.97679C9.19828 7.21472 8.54017 5.57933 8.1766 4.2811C7.98416 3.59394 7.88781 3.04841 7.8643 2.65287C8.08157 2.79974 8.34966 3.01614 8.66366 3.31556ZM9.59779 12.9191C10.8794 14.9838 12.2252 16.7161 13.4102 17.8444C13.8892 18.3005 14.6395 18.2735 15.086 17.7842C15.5325 17.2949 15.5062 16.5285 15.0271 16.0724C13.9519 15.0487 12.6153 13.3195 11.3191 11.1609L13.8992 8.52542C14.0254 8.81764 14.1719 9.11398 14.3332 9.41052C15.159 10.9288 16.5143 12.7077 18.1902 14.4195C19.866 16.1314 21.6076 17.5158 23.094 18.3593C23.3843 18.524 23.6744 18.6737 23.9605 18.8026L12.4325 30.5779C12.3949 30.5752 12.342 30.5687 12.271 30.5547C11.9465 30.4905 11.4603 30.302 10.8306 29.9447C9.58595 29.2384 8.01755 28.0087 6.452 26.4096C4.88644 24.8104 3.68263 23.2084 2.99115 21.937C2.64133 21.2938 2.45681 20.7972 2.39395 20.4657C2.3802 20.3932 2.37384 20.3392 2.37122 20.3007L9.59779 12.9191ZM16.4062 8.23412C16.0933 7.65882 15.9127 7.20075 15.833 6.87325C16.1537 6.95459 16.6021 7.13912 17.1653 7.45872C18.41 8.16504 19.9784 9.39468 21.5439 10.9938C22.6124 12.0853 23.5124 13.178 24.1961 14.1661C23.4081 14.1064 22.5647 14.1724 21.6676 14.3889C21.0796 13.8895 20.4731 13.3258 19.8671 12.7067C18.3015 11.1075 17.0977 9.50549 16.4062 8.23412Z" fill="white"/>
</svg>
